:SAMPLES-PER-SECOND 30
:FULLY-SPECIFIED
:DEGREES
35
root  35.07855333 36.52162327 -14.80001465 10.10446358 1.42022109 3.09591794
lowerback  -8.919519424 0.5895110369 1.824839354
upperback  -3.791599989 0.3281469941 -2.4792099
thorax  1.098170042 -0.01998730004 -3.564280033
lowerneck  -16.70960045 1.805269957 1.555940032
upperneck  14.13029957 1.231860042 4.012350082
head  7.064340115 0.9982140064 1.18166995
lclavicle  0 -4.497500157e-015 -2.743230041e-014
lhumerus  -43.30599976 24.85409927 72.04180145
lradius  -0.05812639371 -6.507048965e-006 27.99300194
lwrist  4.824992743e-007 -3.790274832e-007 -29.61050034
lhand  -3.519791282e-031 -36.91109848 -10.63360023
lfingers  90 7.125020027 -90
lthumb  94.81243896 -25.4698925 101.0770493
rclavicle  0 -4.497500157e-015 -2.743230041e-014
rhumerus  -28.66250038 -12.37469864 -75.89890289
rradius  -5.16745672e-007 2.214343908e-008 66.99469757
rwrist  1.380293725e-006 2.528095422e-007 -164.9279938
rhand  -3.017554215e-031 -2.137300014 -7.684050083
rfingers  -90 -7.125020027 -90
rthumb  -86.48752594 -8.00454998 -66.21246338
rfemur  -13.39906502 14.65123844 13.41238022
rtibia  -1.10867846 0.7986351252 21.40212059
rfoot  -0.814899385 -18.66981697 -40.02906036
rtoes  4.091169834 19.61224747 -102.0400314
lfemur  -11.04552555 -17.29354477 -18.47381401
ltibia  1.603762746 1.236489296 16.15157509
lfoot  0.4792816639 -28.55145645 33.40488434
ltoes  -8.6760149 -18.0900116 -116.1707077
36
root  35.087219 36.52442572 -14.79384054 10.03659725 1.201855779 3.110225677
lowerback  -8.970588684 0.6889260411 1.795770049
upperback  -3.807549953 0.4590210021 -2.494859934
thorax  1.11954999 0.04407320172 -3.551320076
lowerneck  -16.72190094 1.782099962 1.519410014
upperneck  14.06449986 1.193349957 4.108839989
head  7.04489994 0.9853600264 1.214269996
lclavicle  0 -4.497500157e-015 -2.743230041e-014
lhumerus  -43.23329926 24.82259941 72.06220245
lradius  -0.05884414539 -6.507048965e-006 28.01059723
lwrist  4.824992743e-007 -3.790274832e-007 -29.57220078
lhand  -3.52209515e-031 -36.90370178 -10.60690022
lfingers  90 7.125020027 -90
lthumb  94.80329895 -25.44379425 101.0667496
rclavicle  0 -4.497500157e-015 -2.743230041e-014
rhumerus  -27.47069931 -11.70129871 -76.04229736
rradius  -5.16745672e-007 2.214343908e-008 68.17749786
rwrist  1.380293725e-006 2.528095422e-007 -165.7940063
rhand  -3.019166977e-031 -2.466710091 -7.658199787
rfingers  -90 -7.125020027 -90
rthumb  -86.53772736 -8.01058197 -66.53179932
rfemur  -13.29031563 14.73191738 13.36518097
rtibia  -1.07499373 0.7434638143 21.2997036
rfoot  -0.7392939925 -18.74093819 -39.90293121
rtoes  4.06947279 19.61229706 -101.9753418
lfemur  -10.93006325 -17.17791367 -18.56580925
ltibia  1.626615167 1.177651644 16.12995911
lfoot  0.4848825037 -28.45728493 33.45162582
ltoes  -8.7183218 -18.07018852 -116.3070374
37
root  35.08335624 36.52695183 -14.78765593 10.10817528 1.252744675 3.091311216
lowerback  -8.966150284 0.6918070316 1.790510178
upperback  -3.775700092 0.4669879973 -2.520190001
thorax  1.150779963 0.05000770092 -3.573970079
lowerneck  -16.67840004 1.745100021 1.510030031
upperneck  13.95899963 1.141559958 4.160369873
head  7.003709793 0.9625350237 1.225249887
lclavicle  0 -4.497500157e-015 -2.743230041e-014
lhumerus  -43.1568985 24.84059906 72.0664978
lradius  -0.05956153944 -6.507048965e-006 28.00520134
lwrist  4.824992743e-007 -3.790274832e-007 -29.52420235
lhand  -3.526086392e-031 -36.89830017 -10.55959988
lfingers  90 7.125020027 -90
lthumb  94.7907486 -25.39760971 101.056694
rclavicle  0 -4.497500157e-015 -2.743230041e-014
rhumerus  -26.23500061 -11.02340221 -76.13269806
rradius  -5.16745672e-007 2.214343908e-008 69.5094986
rwrist  1.380293725e-006 2.528095422e-007 -166.0780029
rhand  -3.020371161e-031 -2.198319912 -7.641699791
rfingers  -90 -7.125020027 -90
rthumb  -86.4815979 -8.039988518 -66.26945496
rfemur  -13.32936573 14.68847847 13.37553215
rtibia  -1.05919826 0.7334368229 21.25216866
rfoot  -0.7213059664 -18.74858093 -39.90605164
rtoes  4.073237419 19.61232185 -101.9865646
lfemur  -11.04418755 -17.16646004 -18.49753761
ltibia  1.603055477 1.215722442 16.188097
lfoot  0.4911635518 -28.5378437 33.39514923
ltoes  -8.701386452 -18.07813835 -116.252449
38
root  35.08228692 36.52729125 -14.78324199 10.14187717 1.306643844 3.091964006
lowerback  -8.997151375 0.7000929117 1.768920183
upperback  -3.751430035 0.4817219973 -2.53008008
thorax  1.193959951 0.05912439898 -3.570600033
lowerneck  -16.69560051 1.71013999 1.637330055
upperneck  13.91889954 1.090739965 4.023419857
head  6.996059895 0.9330360293 1.154430032
lclavicle  0 -4.497500157e-015 -2.743230041e-014
lhumerus  -43.08259964 24.93199921 72.03359985
lradius  -0.06027064472 -6.507048965e-006 27.96489906
lwrist  4.824992743e-007 -3.790274832e-007 -29.65660095
lhand  -3.519205588e-031 -36.92210007 -10.63910007
lfingers  90 7.125020027 -90
lthumb  94.81878662 -25.47488403 101.089386
rclavicle  0 -4.497500157e-015 -2.743230041e-014
rhumerus  -25.05179977 -10.21889973 -76.18939972
rradius  -5.16745672e-007 2.214343908e-008 70.72679901
rwrist  1.380293725e-006 2.528095422e-007 -167.0500031
rhand  -3.008721032e-031 -2.290750027 -7.815090179
rfingers  -90 -7.125020027 -90
rthumb  -86.56887817 -7.876216888 -66.36922455
rfemur  -13.34059334 14.69513226 13.37632751
rtibia  -1.05446434 0.7343948483 21.23988152
rfoot  -0.7374120355 -18.7500515 -39.97426605
rtoes  4.099548817 19.61231995 -102.0650177
lfemur  -11.05514145 -17.17306709 -18.49492264
ltibia  1.629748225 1.248669386 16.15726089
lfoot  0.5051470399 -28.58136559 33.38315201
ltoes  -8.699289322 -18.07798767 -116.2456894
